<svg xmlns="http://www.w3.org/2000/svg" width="28" height="28" viewBox="0 0 28 28">
    <g>
        <g>
            <path fill="#fff" d="M77.155 14.913h3.069v12.635a.452.452 0 0 0 .452.452h5.2a.452.452 0 0 0 .452-.452V14.972h3.528a.452.452 0 0 0 .449-.4l.536-4.652a.452.452 0 0 0-.449-.5h-4.061V6.5c0-.879.473-1.325 1.407-1.325H90.4a.452.452 0 0 0 .452-.452V.455A.452.452 0 0 0 90.4 0h-3.835a7.018 7.018 0 0 0-4.589 1.73 4.812 4.812 0 0 0-1.6 4.277v3.41h-3.221a.452.452 0 0 0-.452.452v4.592a.452.452 0 0 0 .452.452z" transform="translate(-3010.606) translate(3018) translate(-76.703)"/>
        </g>
        <path fill="none" d="M0 0H28V28H0z" transform="translate(-3010.606) translate(3010.606)"/>
    </g>
</svg>
