<svg width="205" height="43" viewBox="0 0 205 43" fill="none" xmlns="http://www.w3.org/2000/svg">
<path d="M-170.048 76.4962C-167.329 76.1724 -168.924 75.3725 -168.395 74.7222C-165.21 74.0297 -166.823 75.2952 -165.642 75.633C-163.677 75.1112 -162.232 74.0004 -160.734 73.8473C-160.58 74.0149 -160.303 74.0324 -160.597 74.2918C-158.552 73.2114 -154.307 73.4653 -151.968 72.1255C-151.777 72.1977 -151.677 72.2792 -151.627 72.32C-152.087 71.8625 -152.229 71.3726 -152.175 71.0002C-150.954 70.8296 -150.021 70.0921 -149.457 70.6765C-150.183 70.7507 -150.246 71.0323 -150.54 71.2917L-149.302 70.8441C-148.029 71.6311 -150.989 71.3835 -150.92 72.0642C-148.506 71.4506 -145.69 70.2913 -143.761 70.3234C-143.259 71.1893 -148.166 71.1865 -145.501 71.6936L-148.478 71.7229C-146.065 72.8977 -150.253 71.8585 -148.012 73.1426C-144.136 72.9298 -143.761 72.1118 -139.885 71.899C-139.078 71.2662 -140.282 71.1599 -139.47 70.5726C-134.136 68.9266 -134.841 72.3462 -130.991 70.531C-130.012 69.789 -129.815 68.5765 -126.86 68.7788L-127.701 69.9654C-123.939 69.5349 -125.776 68.1636 -121.777 68.2591C-122.411 68.7825 -124.675 69.0599 -124.076 69.0903C-121.42 69.5066 -122.376 68.2286 -120.434 67.9383L-119.887 68.7996C-115.931 68.0282 -111.676 66.5843 -107.289 65.5396C-107.483 65.8805 -108.177 66.2724 -107.064 66.388C-101.63 64.8235 -95.2539 63.9423 -89.8043 62.9724C-89.2061 62.5444 -88.6125 62.071 -88.0189 61.5975C-87.529 61.4557 -87.0473 61.6816 -87.5187 62.005C-85.395 61.6961 -87.5697 61.5058 -86.6677 60.9091C-85.5156 60.5162 -84.9746 60.8736 -85.659 61.3563C-84.7838 60.9458 -83.7864 60.3852 -82.6482 59.8561C-82.0814 59.5689 -81.4646 59.3224 -80.8979 59.0352C-80.2857 58.7433 -79.6689 58.4968 -79.0567 58.2049C-76.5488 57.1689 -73.9908 56.1737 -72.0079 55.8334C-72.2209 55.9927 -72.4293 56.1974 -72.6422 56.3568C-71.1271 55.9267 -70.5159 55.1764 -69.8501 54.5122C-69.2297 53.8526 -68.6 53.2838 -67.1163 52.9945L-67.5376 53.3586C-64.4083 52.1215 -61.2752 50.4713 -58.3191 48.885C-57.5801 48.4885 -56.8411 48.0919 -56.1428 47.7454C-55.4445 47.3988 -54.7555 46.9615 -54.0526 46.6604C-52.7014 45.9719 -51.3409 45.3743 -50.1027 44.9267C-49.9954 44.182 -48.5173 43.3888 -47.1847 42.5189C-45.8521 41.6489 -44.5648 40.7836 -44.8753 39.9899C-43.0795 39.1643 -42.4173 38.9131 -41.5329 38.5934C-41.093 38.4109 -40.6577 38.1829 -40.0048 37.8411C-39.3565 37.4538 -38.5861 36.9164 -37.4257 36.1558C-36.8321 35.6824 -36.5654 35.1507 -36.3488 34.5782C-36.0915 33.9558 -35.8387 33.2879 -35.2637 32.633L-34.6541 33.2127C-34.2746 32.4401 -33.8496 31.663 -33.47 30.8904L-31.8409 30.678L-30.7908 29.2867C-31.2937 29.7508 -32.0874 30.0612 -32.1606 29.7936C-30.5401 27.7019 -27.3767 25.4524 -26.9904 25.6422L-26.5515 25.0012L-26.1173 24.3148L-25.2942 22.9466L-24.4664 21.6239L-24.0322 20.9375L-23.6433 20.2557C-23.534 20.4279 -23.6423 20.7142 -23.7867 21.0958C-23.9311 21.4774 -24.1663 21.8683 -24.3514 22.3C-23.6423 20.7142 -23.4154 20.691 -23.1338 20.7539C-22.9022 20.7761 -22.616 20.8844 -22.0384 19.3579C-22.4283 19.5812 -22.3163 18.8819 -22.4257 18.7096C-22.0858 18.4456 -21.7098 18.0861 -21.3385 17.6813C-20.9264 17.2265 -20.569 16.6855 -20.1709 16.0945C-19.7727 15.5035 -19.3792 14.8671 -19.0265 14.2808C-18.8274 13.9853 -18.6783 13.649 -18.5246 13.3582C-18.371 13.0673 -18.2219 12.7311 -18.0682 12.4402L-17.8125 13.1478C-15.2884 9.12942 -13.4518 4.21834 -11.5652 -0.652002C-12.4966 1.00238 -13.2655 0.209706 -12.8148 -1.2121L-11.7395 -1.45962C-11.9009 -2.58955 -12.608 -0.0868131 -12.5491 -2.20227C-11.8132 -3.97423 -11.1711 -3.07688 -11.2821 -1.9191L-10.7879 -4.26249C-10.4702 -4.29497 -10.5507 -3.73646 -10.296 -3.48736C-10.3238 -3.75966 -10.2248 -4.13664 -10.035 -4.5229C-9.84982 -4.95455 -9.5739 -5.39548 -9.34801 -5.87715C-8.85084 -6.84513 -8.36294 -7.90387 -8.62799 -8.7022L-8.3557 -8.73005C-7.97715 -9.96104 -7.6754 -11.0466 -7.40979 -12.0368C-7.14417 -13.0269 -6.96003 -13.917 -6.77125 -14.7618C-6.58248 -15.6065 -6.39371 -16.4512 -6.20958 -17.3414C-6.02543 -18.2315 -5.8413 -19.1216 -5.58032 -20.1571C-6.29354 -20.4052 -5.76592 -21.9725 -6.08666 -23.3154C-5.14901 -26.2544 -3.86685 -29.4121 -3.18032 -33.0133C-3.03173 -35.5965 -3.68156 -33.8792 -3.89761 -35.0952C-3.53455 -35.1324 -3.16888 -36.041 -2.91616 -36.7089C-2.66344 -37.3767 -2.43756 -37.8584 -2.37623 -36.8099C-2.16991 -37.9316 -2.04506 -38.9532 -1.96098 -39.9248C-1.87689 -40.8964 -1.92896 -41.8541 -2.08107 -42.8933C-2.23318 -43.9324 -2.58071 -45.0892 -3.30061 -46.2996C-4.02052 -47.51 -5.14887 -48.6786 -6.61707 -49.5832C-6.17976 -48.8942 -5.65171 -48.2145 -6.1241 -48.3496C-7.11527 -49.0737 -8.18895 -50.1562 -7.84445 -50.3749L-7.51285 -50.2712C-9.23943 -51.0118 -10.9568 -51.6617 -12.6787 -52.3569C-14.3506 -53.0114 -16.0318 -53.7567 -17.7445 -54.3611C-21.1745 -55.6154 -24.6534 -56.452 -27.3439 -55.8559L-27.0309 -55.9338C-28.8509 -55.7936 -30.7069 -55.558 -32.5037 -55.1908C-33.7383 -55.1563 -33.3891 -55.3296 -32.9492 -55.5121C-32.5093 -55.6947 -31.9379 -55.9365 -32.9188 -56.1114C-35.863 -55.3059 -38.2137 -54.9739 -40.4049 -54.4288C-40.9402 -54.2824 -41.5256 -54.1767 -42.0563 -53.9848C-42.5916 -53.8384 -43.1222 -53.6466 -43.6937 -53.4047C-44.2243 -53.2129 -44.7457 -52.9303 -45.3125 -52.6431C-45.8293 -52.3151 -46.346 -51.9871 -46.8581 -51.6137C-48.002 -51.5885 -49.3625 -50.9908 -50.7312 -50.0254C-52.0999 -49.0601 -53.4676 -47.6362 -54.5852 -46.0087C-55.7075 -44.4265 -56.6203 -42.5906 -57.3656 -40.9094C-58.0608 -39.1874 -58.6292 -37.5702 -59.2254 -36.2252L-58.6993 -36.4624C-58.6251 -35.7363 -58.7195 -35.3139 -58.9093 -34.9277C-59.1037 -34.5868 -59.3889 -34.2366 -59.474 -33.7235C-59.1202 -33.8514 -58.8463 -35.2092 -58.7082 -34.3062C-58.9104 -31.3507 -58.7403 -28.3415 -58.2118 -25.4148C-57.6833 -22.4881 -56.8371 -19.5939 -55.5917 -16.8322C-53.151 -11.3496 -49.4452 -6.50076 -45.3238 -2.51985C-43.7999 -1.07065 -42.9422 -1.2042 -42.066 -1.15622C-41.1898 -1.10823 -40.3405 -0.874067 -38.6247 1.1058C-39.1786 1.07072 -39.7825 0.994891 -40.3364 0.959806C-38.5319 2.01346 -36.7775 3.02637 -35.0545 4.18007C-34.2134 4.78193 -33.2908 5.28375 -32.4544 5.84023C-31.5725 6.39207 -30.736 6.94854 -29.8542 7.50038C-28.977 8.00683 -28.0951 8.55867 -27.2179 9.06513C-26.777 9.34105 -26.3407 9.57159 -25.8998 9.84751C-25.4635 10.078 -24.9818 10.3039 -24.5455 10.5345C-23.6276 10.9909 -22.7096 11.4473 -21.7963 11.8584C-20.883 12.2694 -19.9289 12.6305 -18.9795 12.9461C-19.488 12.9064 -19.6463 13.1519 -20.3234 12.8084C-19.7046 13.4788 -18.305 14.1612 -17.0647 14.6305C-15.7837 15.0498 -14.6166 15.2515 -14.5037 15.0106C-13.3903 15.5847 -14.448 15.5552 -13.8384 16.1349C-13.1428 16.6599 -12.0665 16.8709 -11.131 17.0504C-10.1955 17.2299 -9.35075 17.4186 -9.02741 17.89C-8.91809 18.0623 -9.53126 17.8957 -9.85822 17.8374C-8.74119 17.9983 -5.12403 19.7379 -5.83 18.6637C-5.15288 19.0072 -4.48504 19.2599 -3.8172 19.5126C-3.14936 19.7653 -2.4908 19.9273 -1.83224 20.0892C-0.515122 20.4131 0.670493 20.7963 1.73388 21.3296C3.43987 20.9718 6.46345 23.1848 7.27366 22.1389C7.01166 22.716 8.17046 23.2854 9.68303 23.7269C11.1956 24.1684 13.0026 24.3505 13.9603 24.2984C13.2481 24.5088 15.46 25.0622 14.6209 25.3773C16.7328 25.8493 18.6713 25.972 18.4202 25.3099C20.1885 26.4589 22.2086 26.4817 23.961 26.5776C25.7134 26.6736 27.275 26.6974 28.2125 27.7938C34.5728 28.1065 40.4153 28.2887 46.0262 28.4488C45.8596 29.0619 44.2934 28.9928 42.8133 28.869C41.2878 28.7498 39.8578 28.6667 39.9274 29.3475C41.3028 29.3444 42.492 29.3145 43.6312 29.2439C44.7705 29.1733 45.8143 29.0666 46.9081 29.0006C49.0504 28.8733 51.1519 28.796 53.799 29.1215C55.1523 29.35 52.9785 29.6181 52.5386 29.8006C57.9263 29.5708 62.8668 30.3497 67.6635 29.7216C67.6274 29.8171 67.1374 29.9589 66.6429 30.0553C67.5598 30.0533 68.8176 30.2457 68.7165 29.7057L67.8135 29.8439C66.3546 29.03 71.5412 28.1787 71.6809 27.7517C70.8929 28.566 72.0507 28.6769 73.1176 28.7971C74.1893 28.9627 75.1248 29.1422 73.8561 30.1891C74.4869 30.0787 75.2398 29.8183 75.1073 29.4191C76.0335 29.5079 76.3336 29.7523 75.3677 30.1721C78.726 29.8287 77.5219 29.264 80.545 29.23C80.5274 29.507 79.9421 29.6127 79.6068 29.9221C81.1535 29.3512 82.6594 28.8304 85.2426 28.979C85.075 29.1337 85.3705 29.3328 84.6397 29.3617C89.0243 29.1885 92.0851 27.7291 96.8884 28.0634C95.5022 29.3058 98.5279 28.4003 98.8115 29.3801L101.384 28.9795L100.33 28.537C102.613 28.4411 104.55 27.647 106.498 27.8605L104.851 28.3499L109.076 27.9637L106.665 27.7058C108.938 27.0607 106.349 26.4083 109.391 26.5559C108.765 26.7116 111.674 26.46 112.878 27.0247C113.985 26.6364 115.137 26.2435 116.808 26.4395C117.254 26.7608 116.511 27.5705 116.806 27.7695C117.862 26.882 122.075 27.2767 123.439 26.2659C123.004 26.4938 122.969 27.0477 123.16 27.1199L124.048 26.3871C125.12 26.5527 125.265 26.6295 125.13 27.1019C128.289 27.0541 124.042 25.8833 127.838 26.2289C127.57 26.3021 127.67 26.3836 127.09 26.5347C130.857 26.608 134.337 25.6561 137.787 25.762C138.892 26.7037 134.806 26.2044 136.033 26.996C138.529 26.7408 141.088 26.204 143.611 25.7626C146.129 25.2759 148.657 24.8799 151.076 24.7701L150.155 24.7268C150.687 23.2049 153.814 25.0863 156.19 24.1096C155.61 24.2607 155.502 25.0054 155.62 24.8099C157.268 24.7791 158.978 24.4666 160.816 24.0494C161.76 23.8612 162.744 23.623 163.819 23.3755C164.89 23.0826 166.011 22.8304 167.217 22.5236L166.669 22.9924C167.682 23.0264 168.952 22.8965 170.264 22.7166C171.575 22.5366 172.882 22.3113 173.926 22.2046C174.474 21.7358 175.695 21.5651 174.877 21.1902C176.557 21.477 178.191 21.3099 179.72 21.016C180.487 20.8918 181.244 20.6767 182.002 20.4617C182.36 20.3792 182.76 20.2467 183.113 20.1188C183.467 19.9909 183.821 19.863 184.175 19.7351C185.59 19.2236 187.01 18.7574 188.439 18.382C189.156 18.217 189.872 18.052 190.594 17.9324C191.315 17.8127 192.046 17.7839 192.827 17.7958C192.155 17.9561 191.299 18.5481 191.834 18.4017C193.385 17.8762 194.982 17.3461 196.529 16.7753C195.974 16.2817 195.825 16.618 194.653 16.3709C195.151 15.8614 196.412 15.1822 197.568 14.8347C195.564 15.865 197.852 15.8145 198.91 15.844C198.71 15.681 198.959 15.4262 198.804 15.2586C200.198 15.4371 200.206 15.0694 200.305 14.6924C200.378 14.5016 200.445 14.2654 200.744 14.0514C201.043 13.8374 201.533 13.6956 202.396 13.6074L202.342 13.9798C203.521 13.4007 204.54 12.6085 205.879 12.2424C206.665 12.7582 204.673 13.0077 204.779 13.5931C205.708 13.2687 206.51 12.5906 207.326 12.0486C208.142 11.5066 208.963 11.01 209.925 11.0033C209.195 11.4906 208.098 11.9697 207.363 12.4116C209.488 12.5612 209.637 12.225 211.066 11.8496L210.93 11.8635L214.237 11.021L213.33 11.1138C213.719 10.432 214.221 9.96786 214.779 9.58985C215.336 9.21185 215.903 8.92462 216.561 8.6281C217.835 8.08509 219.196 7.48742 220.441 6.21364C218.036 8.70653 220.252 7.05837 220.386 7.916C221.284 7.73244 222.577 7.37097 222.342 7.76187C222.917 7.10694 223.584 6.90118 224.287 6.60002C224.994 6.34425 225.779 5.94305 226.503 4.95187C226.753 5.15558 228.017 4.06334 228.05 4.83949C229.754 3.56469 227.397 4.72292 227.355 4.31448C228.514 3.09536 230.224 2.32442 232.092 1.308C233.914 0.296229 235.9 -0.915641 237.257 -2.88872C238.62 -4.35795 239.24 -5.47599 239.823 -6.49864C240.135 -7.03497 240.406 -7.52129 240.714 -8.103C241.071 -8.64397 241.465 -9.28035 241.98 -10.0668C242.547 -10.354 242.58 -10.0364 242.44 -9.60935C242.3 -9.18234 242.033 -8.65065 242.033 -8.65065C243.701 -9.83003 244.624 -11.1167 245.551 -12.8165C245.507 -12.3534 245.897 -12.5767 246.509 -12.8685C247.387 -14.1506 246.32 -14.2708 247.778 -15.7039C247.824 -15.2501 247.98 -14.624 247.832 -13.8293C248.673 -15.4744 249.173 -17.3139 249.813 -19.122C250.122 -19.2452 250.159 -18.8822 250.11 -18.4644C250.065 -18.0013 249.894 -17.4335 249.84 -17.0612C250.062 -17.5882 250.328 -18.1199 250.54 -18.7378C250.752 -19.3556 251.014 -19.9327 251.136 -20.5412C251.302 -21.1544 251.433 -21.6721 251.477 -22.1352C251.521 -22.5984 251.484 -22.9614 251.37 -23.1791C251.135 -22.7882 250.9 -22.3972 250.619 -22.0017C250.867 -22.7149 251.341 -22.1213 251.26 -21.5628C251.216 -21.0997 251.122 -20.6773 250.968 -20.3865C250.814 -20.0956 250.656 -19.8501 250.488 -19.6954C250.153 -19.386 249.795 -19.3035 249.659 -19.2896L250.078 -20.5706C249.588 -20.4288 249.212 -20.0694 248.9 -19.533C248.583 -19.0421 248.33 -18.3742 248.082 -17.661C247.536 -16.2753 247.018 -14.6173 246.208 -13.5715C246.107 -14.1114 246.01 -14.606 245.909 -15.1459C245.819 -14.6782 245.634 -14.2466 245.499 -13.7742C245.364 -13.3018 245.229 -12.8294 245.089 -12.4024C244.477 -12.1105 243.778 -12.2224 244.397 -13.3405C243.581 -12.7985 243.437 -12.4169 243.247 -12.0306C243.052 -11.6897 242.903 -11.3535 242.164 -10.9569C241.988 -10.893 241.978 -10.9837 242.055 -11.1292C241.743 -10.5928 241.426 -10.1019 241.114 -9.56555C241.163 -9.98328 240.301 -9.89512 241.194 -10.5825C240.509 -10.0999 240.011 -9.59034 239.558 -9.08546C239.355 -8.83535 239.151 -8.58523 238.993 -8.33976C238.789 -8.08964 238.626 -7.88956 238.468 -7.64408C237.825 -6.75295 237.341 -6.10728 236.615 -6.03304L236.773 -6.27852C235.197 -4.64994 235.22 -4.42303 235.47 -4.21931C235.675 -4.01096 236.057 -3.86655 235.016 -2.38442C234.004 -2.41849 232.937 -2.53868 231.965 -2.62276L232.108 -1.67436C231.718 -1.45107 230.897 -0.954463 230.86 -1.31753C229.774 0.169238 231.333 -1.1824 230.795 -0.164398C230.214 -0.0133106 229.607 0.323944 229.044 0.656565C228.437 0.993827 227.839 1.42185 227.281 1.79985C226.719 2.13247 226.202 2.46045 225.717 2.64764C225.272 2.78481 224.864 2.82656 224.609 2.57747C224.203 3.53617 226.741 1.90092 224.843 3.51659C224.202 3.0777 223.599 3.46034 222.924 4.0338C222.249 4.60725 221.447 5.28539 220.367 5.48752C220.592 4.54738 222.506 3.9848 220.387 4.33903C220.107 5.19304 219.182 5.56278 218.157 5.85103C217.132 6.13928 215.956 6.30531 215.222 6.74725C215.409 7.23254 214.584 7.68378 213.355 8.22215C212.167 8.71049 210.57 9.2406 209.264 9.9244C209.301 9.82899 208.937 9.86611 208.402 10.0126C207.867 10.159 207.109 10.374 206.256 10.553C204.56 11.0016 202.55 11.5281 201.202 11.8034L201.229 11.6172C201.023 12.7389 198.287 13.3396 196.396 14.1292C196.29 13.5438 196.575 13.1937 197.573 12.6331L195.749 13.1864C195.428 13.632 194.866 13.9646 193.718 14.4029L193.998 13.5489C192.796 13.9011 191.612 14.4348 190.333 14.9325C189.054 15.4301 187.63 15.8509 185.991 15.9725C185.975 16.7079 189.013 17.2686 185.702 18.5243C185.483 18.1798 185.237 17.563 186.076 17.2479C185.813 17.3665 185.124 17.8038 184.479 17.778L185.712 16.8265C184.205 16.8889 185.05 17.5361 183.88 17.7476C183.779 17.2076 182.944 17.5681 182.989 17.1049C183.252 16.9863 184.042 17.089 184.468 16.7703C183.792 16.8853 183.065 16.9595 182.421 16.9337C181.776 16.9079 181.172 16.8321 180.881 16.6784C181.045 16.9368 181.046 17.3952 180.062 17.6335C177.548 18.1656 179.099 17.1817 177.587 17.1987C177.338 17.4534 176.753 17.5591 176.308 17.6963C175.818 17.8381 175.424 18.016 175.511 18.4198C174.789 18.5394 174.571 18.1949 174.234 18.0459C173.01 18.6296 168.204 19.1669 169.781 19.7852L170.103 19.7981C170.058 19.8028 169.971 19.8574 169.881 19.8667C167.799 20.584 165.53 20.816 163.297 20.9526C161.059 21.0439 158.776 21.1397 156.661 21.5393L156.634 21.267C154.125 21.8446 150.984 22.074 149.179 22.8088C148.407 22.8877 147.358 22.4905 147.643 22.1404C145.71 22.5214 145.516 22.8623 142.651 22.6508C144.561 22.0428 141.928 22.312 144.615 22.129C142.046 22.1165 141.455 21.7184 138.752 22.6368C139.635 21.8586 136.798 21.9194 135.587 22.1808L137.412 22.5444C136.055 22.729 134.866 22.7589 133.632 22.7934L134.224 21.8615C131.572 21.4906 129.25 22.095 127.099 22.59C124.903 23.0897 122.879 23.48 120.871 22.6765C119.52 23.3649 123.745 22.9788 122.544 23.7894C120.116 23.8084 117.562 22.6021 116.831 22.631C113.494 22.2843 113.816 24.0857 110.361 23.9345C110.807 24.2558 111.258 25.081 108.69 25.527C106.256 25.5006 105.677 24.3217 107.156 23.987C107.746 23.9267 108.033 24.035 107.997 24.1304C108.759 23.9608 109.798 23.8087 108.803 23.4977L108.518 23.8478C107.296 23.56 104.015 23.758 104.735 23.1799C102.938 23.547 103.969 23.7626 105.354 23.8503C102.248 23.5258 100.516 24.0699 97.3285 23.8454C97.8509 24.0213 98.3011 24.388 97.7973 24.3937C93.144 24.1816 95.7607 25.1063 92.62 25.3357C90.8305 24.8767 93.2301 24.1269 90.0718 24.6332C88.1194 24.3743 89.6206 23.8081 90.4143 23.4976C87.5516 24.2031 85.021 23.2236 83.364 23.1638L84.8931 22.8699C83.9947 23.0534 83.264 23.0823 82.4832 23.0704L83.3743 23.713C82.4935 23.6196 81.7127 23.6078 81.7349 23.3762C80.8189 23.8367 82.4409 24.4505 80.6219 25.0492C79.4456 24.7567 76.9959 25.4657 76.5854 24.5906C80.3264 24.8501 76.175 23.7154 79.3203 23.5314C78.6896 23.6417 77.9588 23.6706 77.0733 23.5318C76.9279 23.455 77.1909 23.3364 77.4632 23.3085C73.9028 22.572 75.8222 24.3017 72.1044 24.2691C72.5572 23.7643 71.2308 23.3496 70.6455 23.4553C72.1163 23.4884 71.369 24.2526 69.9853 24.6234C67.6058 24.2247 67.3985 24.8879 66.1546 24.8316L67.5986 25.0508C67.0958 25.515 65.9427 25.4494 64.2588 25.5757C64.1263 25.1766 65.7926 25.3272 65.1794 25.1606C63.2929 25.9955 61.0419 24.1621 58.4782 24.6535C57.2926 24.2703 58.3855 23.7458 57.3499 23.4848C55.9069 23.7241 55.153 23.526 54.3536 23.3326C53.5496 23.0938 52.791 22.8504 51.2526 23.0535C52.0576 23.7508 52.2253 23.5961 50.0793 24.1365C51.7224 24.0602 53.4155 24.0247 55.0585 23.9484C53.9879 24.2413 52.908 24.4434 51.8374 24.7363C52.5774 24.7982 53.3943 24.7147 54.0797 24.6905C54.8059 24.6162 55.4459 24.5967 55.9089 24.641C54.353 25.1211 54.5206 24.9664 55.2209 25.5368C54.2029 24.9989 53.2045 25.101 52.1153 25.2123C51.0261 25.3237 49.9416 25.4804 48.756 25.0972L48.9567 23.4717C45.4637 22.499 42.616 23.799 38.0292 22.8922L39.4511 23.343C38.776 23.9165 36.627 23.0815 35.0793 23.1938C35.3006 22.6668 34.3966 22.3465 33.8056 21.9484C33.8473 22.3568 30.4998 21.4609 29.9119 22.4382L27.9713 21.3984C27.0765 21.1689 26.3365 21.107 25.6965 21.1266C25.0565 21.1462 24.5165 21.2472 23.9766 21.3483C22.8967 21.5504 21.776 21.8026 20.0319 21.3389C21.1887 20.9914 19.6936 20.2729 22.1314 20.3447C20.9644 20.143 19.9195 19.7913 19.8205 20.1682C19.2202 19.6793 16.4297 20.1939 15.4792 19.4198C14.9393 19.5209 14.6273 20.0572 13.3509 19.6833C13.2462 19.5564 13.4185 19.4471 13.4185 19.4471C13.3509 19.6833 11.2937 19.2975 12.2988 20.1577C11.5031 19.5512 10.4851 19.0133 9.34486 18.6254C8.20463 18.2376 6.98293 17.9498 5.75193 17.5712C4.52556 17.238 3.34925 16.9456 2.29514 16.5031C1.24567 16.1059 0.323068 15.6041 -0.331866 15.0291C-1.60361 14.7005 -2.9754 14.2905 -4.30182 13.8759C-4.96502 13.6685 -5.62822 13.4612 -6.29142 13.2538C-6.90923 13.0419 -7.53168 12.7845 -8.0541 12.6086C-7.83647 12.4947 -7.94117 12.3678 -7.55026 12.603C-10.382 10.9206 -10.0453 13.3166 -13.2318 11.3037C-14.6289 9.74984 -11.22 11.6942 -12.1751 10.8747C-12.041 9.94382 -13.0905 9.54669 -14.4169 9.13202C-15.6979 8.71271 -17.2651 8.1851 -18.148 7.17479L-17.5802 7.34603C-17.935 7.01544 -18.3759 6.73952 -18.903 6.51826C-19.43 6.29701 -20.0025 6.08039 -20.6203 5.86841C-21.8559 5.44446 -23.3185 5.04372 -24.6005 4.16593C-24.6005 4.16593 -24.3783 4.09735 -24.4422 3.92046C-26.7624 3.65325 -30.3481 1.77286 -32.9797 0.25349C-31.8359 0.22825 -31.6487 0.713543 -31.7415 -0.194113C-32.9142 -0.899642 -32.0339 0.98222 -34.3793 -0.42884C-34.648 -0.814083 -35.1168 -1.3623 -35.4948 -1.9198C-35.8728 -2.4773 -36.1554 -2.99869 -36.011 -3.38031L-34.9744 -2.66086L-33.9379 -1.94141C-34.4133 -3.45195 -36.6066 -3.82384 -37.5302 -4.78413L-37.1403 -5.00742C-38.6771 -6.1343 -39.5904 -6.54534 -40.5491 -6.95176C-41.4671 -7.40819 -42.4351 -7.90536 -43.8728 -9.40923L-43.8172 -8.86463C-45.0074 -9.29322 -45.2354 -9.72849 -45.4226 -10.2138C-45.5365 -10.4314 -45.6097 -10.6991 -45.8191 -10.9528C-46.0285 -11.2065 -46.2879 -11.501 -46.8196 -11.7677C-46.6798 -12.1947 -46.5354 -12.5763 -46.441 -12.9987C-46.9959 -13.4922 -47.9963 -14.3071 -49.02 -15.3488C-50.0437 -16.3906 -51.0859 -17.6139 -51.7511 -18.7382C-51.0601 -18.2586 -50.2365 -17.3798 -49.3722 -16.551C-48.5486 -15.6722 -47.6389 -14.848 -46.8886 -14.2369C-47.312 -14.7898 -48.0541 -15.7686 -48.7415 -16.6613C-49.4289 -17.554 -50.0617 -18.3606 -50.4933 -18.5458C-50.1246 -18.0791 -49.5243 -17.5901 -49.3779 -17.0548C-50.9961 -18.0817 -52.5664 -19.9847 -53.4941 -22.7789C-52.4049 -22.8902 -52.949 -24.623 -53.2124 -26.7514C-53.3645 -27.7905 -53.4805 -28.9251 -53.4011 -29.9421C-53.367 -30.9544 -53.0828 -31.7631 -52.6708 -32.2179C-52.7311 -32.8079 -52.7914 -33.3979 -52.7109 -33.9564C-52.6934 -34.2333 -52.6805 -34.5557 -52.6176 -34.8372L-52.4288 -35.682L-52.3344 -36.1043L-52.1947 -36.5313C-52.0863 -36.8176 -52.0234 -37.0991 -51.9151 -37.3853C-51.8068 -37.6716 -51.6938 -37.9124 -51.5855 -38.1986L-51.3957 -38.5849L-51.1606 -38.9758C-51.0022 -39.2213 -50.8939 -39.5075 -50.7356 -39.753C-50.5773 -39.9984 -50.4189 -40.2439 -50.2606 -40.4894C-50.1023 -40.7349 -49.8986 -40.985 -49.7402 -41.2304C-49.5365 -41.4806 -49.3782 -41.726 -49.1698 -41.9308C-48.3957 -42.8812 -47.5216 -43.7502 -46.552 -44.583C-47.7913 -44.5939 -47.5422 -44.8486 -47.0801 -45.2627C-46.618 -45.6768 -45.979 -46.1549 -46.6339 -46.7299C-45.5736 -47.5721 -45.1383 -47.8 -44.9522 -47.7732C-43.6185 -48.1847 -42.2663 -48.4146 -40.9048 -48.5538C-40.3917 -48.4687 -40.6501 -48.3047 -40.9946 -48.0861C-41.3391 -47.8674 -41.7744 -47.6395 -41.665 -47.4672C-40.3814 -47.9195 -40.0044 -47.8205 -39.8043 -47.6575C-39.5588 -47.4992 -39.4449 -47.2815 -38.5326 -47.3289C-39.0374 -47.7818 -37.8224 -48.4563 -36.2201 -48.4825L-37.3825 -48.6388L-38.5857 -48.7451C-36.7538 -49.6661 -35.7637 -49.4005 -34.8689 -49.171C-33.9241 -48.9007 -33.0794 -48.7119 -31.065 -49.193C-31.5049 -49.0105 -31.8948 -48.7872 -32.3347 -48.6046C-31.3048 -48.8475 -29.3802 -48.8609 -27.4555 -48.8742C-25.5309 -48.8876 -23.5562 -48.8602 -22.368 -49.3485C-22.0225 -49.1087 -21.5991 -48.5559 -22.5661 -48.5946C-20.0819 -48.069 -17.2078 -47.7667 -14.4921 -47.2189C-13.1796 -46.9404 -11.9533 -46.6072 -10.9853 -46.11C-10.0219 -45.6582 -9.31698 -45.0425 -9.06585 -44.3803C-9.24738 -44.3617 -9.37889 -44.3024 -9.51503 -44.2885C-9.36961 -44.2117 -9.26957 -44.1302 -9.12878 -44.0987C-8.98334 -44.0219 -8.84257 -43.9904 -8.74251 -43.9089C-8.49705 -43.7506 -8.28766 -43.4968 -8.3867 -43.1199C-8.56822 -43.1013 -8.8498 -43.1642 -8.78122 -42.942C-8.68116 -42.8605 -8.42177 -42.566 -8.22995 -42.0353C-8.04276 -41.55 -7.9685 -40.8239 -8.18977 -40.2968C-8.31301 -40.6052 -8.4409 -40.959 -8.60489 -41.2174C-8.78438 -40.2819 -8.95461 -39.2556 -9.03406 -38.2387C-9.15888 -37.217 -9.18832 -36.1593 -9.22702 -35.1923C-9.2544 -33.2177 -9.15493 -31.3477 -9.48143 -29.159C-10.6531 -29.4061 -11.8971 -25.4269 -12.5692 -23.478L-12.7192 -23.6002C-14.2722 -17.7093 -14.2806 -13.3061 -15.5984 -7.80609C-16.7346 -6.36006 -17.8769 -3.6294 -19.1369 -0.703279C-20.3969 2.22284 -21.9152 5.31295 -23.5218 7.54079C-22.8967 6.92659 -22.776 8.10655 -23.1417 9.01523C-23.9519 10.0611 -24.296 12.5267 -25.1056 11.784L-24.8251 11.3885C-25.5466 11.5081 -26.2124 12.1723 -26.8142 13.0134C-27.4161 13.8545 -28.0948 14.8411 -28.6966 15.6822L-27.7091 16.8194C-28.0082 17.0334 -28.3073 17.2474 -28.6018 17.5068C-28.8963 17.7662 -29.1954 17.9802 -29.4899 18.2396C-30.0788 18.7584 -30.6131 19.3633 -31.1474 19.9682C-31.6771 20.6185 -32.2114 21.2234 -32.7411 21.8737C-33.2707 22.524 -33.8004 23.1743 -34.2846 23.82C-35.3032 25.0706 -36.3264 26.2758 -37.2867 27.1994C-38.297 28.0823 -39.2397 28.7289 -40.0927 28.9079C-40.7983 30.0806 -42.067 31.1274 -42.8225 32.2594L-43.2552 31.6158C-43.6404 31.8845 -43.9349 32.1438 -44.2748 32.4079C-44.6146 32.6719 -44.9137 32.8859 -45.2129 33.0999C-45.8111 33.528 -46.4093 33.956 -47.0076 34.384C-47.3067 34.598 -47.6012 34.8574 -47.9003 35.0714C-48.1994 35.2855 -48.5393 35.5495 -48.8838 35.7681C-49.5635 36.2962 -50.3294 36.8789 -51.2221 37.5664L-50.7749 36.5576C-51.7991 37.3044 -52.1695 38.1677 -52.5351 39.0763C-52.8554 39.9804 -53.2211 40.8891 -54.2046 41.5857L-55.4134 40.9756C-56.3654 41.5315 -57.3628 42.0921 -58.3649 42.6072C-59.3669 43.1224 -60.4236 43.5515 -61.4303 44.0213C-62.4323 44.5364 -63.439 45.0062 -64.4364 45.5668C-65.3885 46.1227 -66.3312 46.7694 -67.2239 47.4568C-67.2425 47.2752 -67.2342 46.9075 -66.6267 46.5703C-67.5926 46.99 -69.4931 47.6888 -71.0258 48.3958C-72.5631 49.0574 -73.6828 49.768 -73.0278 50.343C-73.443 49.4225 -77.3501 52.0231 -79.5171 53.2535L-79.4191 52.4181C-80.2072 53.2324 -80.6192 53.6872 -81.1267 54.106C-81.6342 54.5247 -82.2824 54.912 -83.6475 55.4643C-84.3237 55.5793 -84.4201 55.0847 -83.467 54.9873C-85.7723 55.3147 -84.9441 56.2389 -87.6985 56.658L-86.8604 55.8845C-89.1379 56.4842 -88.8877 56.6879 -89.9388 57.6208C-91.2853 58.3546 -94.2853 58.6155 -94.804 58.0265C-94.9846 58.5036 -96.131 59.4004 -97.4925 59.5396C-97.7426 59.3359 -97.2666 59.0579 -97.0536 58.8986C-98.052 59.0006 -98.855 59.2203 -99.6126 59.4353C-100.37 59.6504 -101.032 59.9015 -101.649 60.148C-102.883 60.641 -103.985 61.0747 -105.374 60.9416C-105.488 60.7239 -105.684 60.6063 -105.915 60.5842C-104.386 60.2903 -102.998 59.9649 -102.054 59.7767C-101.065 59.5838 -100.525 59.4828 -100.611 59.5374C-100.771 58.866 -103.249 59.3027 -101.513 57.8871C-102.429 58.3476 -103.681 59.1175 -104.996 59.7106C-106.311 60.3036 -107.726 60.8152 -108.956 60.8951C-109.097 60.8636 -109.192 60.8275 -109.342 60.7053L-109.124 60.5913C-109.714 60.6516 -110.159 60.7888 -110.644 60.976C-111.42 61.0095 -111.924 61.0151 -112.691 61.1394C-113.064 60.6273 -115.605 61.3456 -116.826 61.5163C-116.611 62.2739 -118.244 62.4409 -116.605 62.7777C-116.791 62.7509 -116.387 62.6637 -115.58 62.4895C-115.403 62.4255 -115.176 62.4023 -115.049 62.2976C-115.044 62.343 -115.09 62.3476 -115.13 62.3977C-114.323 62.2234 -113.243 62.0213 -112.072 61.8098C-112.974 62.4065 -113.936 62.8716 -115.42 62.7024C-115.955 63.3074 -116.58 63.9216 -116.96 64.2356C-118.873 63.4682 -122.223 63.4438 -122.787 62.8595C-126.534 63.8847 -131.703 64.459 -133.951 66.248C-135.017 66.5862 -135.259 66.0148 -135.691 65.8297C-135.074 65.5832 -134.348 65.5089 -134.003 65.2903C-136.135 65.9668 -140.46 66.2715 -140.853 67.3663C-143.658 67.2863 -139.407 66.2555 -143.192 66.9176L-142.725 66.5489C-150.357 65.9076 -154.504 70.6423 -163.045 69.6354C-162.446 69.6658 -162.164 69.7287 -162.014 69.8509C-171.523 70.1354 -181.303 73.153 -190.778 72.8835C-193.433 72.9258 -193.64 73.589 -195.218 74.3006L-195.892 73.544L-198.513 74.8209C-202.337 75.9914 -205.556 73.6608 -210.313 75.5688L-209.622 76.0485C-211.397 76.184 -215.203 77.0777 -214.996 76.4145C-215.168 76.5238 -215.526 77.0648 -216.234 76.8621L-216.322 76.4583L-220.595 77.7206C-224.022 77.8417 -220.272 75.945 -225.214 76.4962C-227.006 76.9087 -230.294 78.3913 -229.54 78.5893C-228.814 78.5151 -227.611 78.6214 -227.523 79.0252L-229.175 79.4691C-229.317 80.7677 -230.453 82.2137 -226.195 82.6037L-223.424 81.4491L-222.41 81.9417L-224.806 82.2784C-223.344 82.6791 -222.537 82.0464 -221.621 81.5858C-221.362 81.8803 -220.93 82.0655 -220.331 82.0959L-217.647 80.5375C-217.233 80.9996 -218.77 81.6612 -216.841 81.6932C-215.585 80.9687 -218.268 80.7386 -216.086 80.1028C-214.624 80.5036 -214.981 81.0445 -213.449 80.3375C-213.189 80.632 -213.484 80.8914 -214.105 81.0925C-212.695 80.5356 -210.321 80.4305 -209.664 79.6755C-208.142 80.2077 -204.841 78.8613 -204.852 80.1006C-204.43 79.7365 -202.458 78.8469 -201.151 78.6216C-203.358 80.3605 -196.209 78.0705 -196.636 79.7192C-195.001 78.2221 -190.266 78.3342 -187.214 77.2425C-187.386 77.3518 -187.68 77.6112 -188.003 77.5983C-186.228 77.4627 -185.642 77.8155 -184.484 77.9264C-184.414 76.8186 -181.628 76.2586 -180.25 75.384C-177.924 76.1551 -181.436 76.7893 -180.608 77.7135C-180.832 76.8652 -176.939 76.3753 -177.78 75.7735C-176.04 76.1918 -176.3 75.8973 -175.349 76.6714C-175.216 75.2821 -173.834 76.2413 -172.561 75.2399C-170.05 75.5793 -171.8 76.4002 -169.169 75.6726C-167.789 75.715 -170.048 76.4962 -170.048 76.4962ZM-107.367 65.2266C-107.362 65.272 -107.362 65.272 -107.367 65.2266C-107.902 65.373 -108.351 65.4648 -108.664 65.5427C-108.392 65.5148 -107.993 65.3823 -107.367 65.2266ZM-102.112 64.1391C-102.743 64.2494 -103.551 64.4237 -104.404 64.6027C-104.654 64.3989 -104.505 64.0627 -103.965 63.9616C-104.219 64.171 -102.943 64.0865 -102.112 64.1391ZM-114.207 61.111C-113.409 60.8459 -113.123 60.9542 -112.973 61.0765C-113.377 61.1636 -113.826 61.2554 -114.406 61.4065C-114.402 61.4519 -114.493 61.4611 -114.488 61.5065C-114.406 61.4065 -114.334 61.2157 -114.207 61.111Z" fill="white"/>
</svg>
