<svg xmlns="http://www.w3.org/2000/svg" width="120.003" height="24" viewBox="0 0 120.003 24">
    <defs>
        <style>
            .cls-1{fill:#3d3d3d}
        </style>
    </defs>
    <g id="Logo_main" transform="translate(-76 -28.258)">
        <g id="그룹_74122" transform="translate(0 -1.742)">
            <path id="패스_6199" d="M719.514 187.209v-17.821a.189.189 0 0 1 .189-.189h2.4a.189.189 0 0 1 .189.189v1.323a.188.188 0 0 0 .34.112 5.107 5.107 0 0 1 4.127-2 5.636 5.636 0 0 1 2.436.53 6.069 6.069 0 0 1 1.956 1.464 6.818 6.818 0 0 1 1.3 2.2 7.8 7.8 0 0 1 .467 2.726 7.89 7.89 0 0 1-.48 2.777 6.989 6.989 0 0 1-1.338 2.247 6.094 6.094 0 0 1-2.007 1.489 5.863 5.863 0 0 1-2.486.53 5.19 5.19 0 0 1-2.4-.555 4.828 4.828 0 0 1-1.461-1.141.188.188 0 0 0-.331.122v6a.189.189 0 0 1-.189.189H719.7a.189.189 0 0 1-.186-.192zm6.639-7.055a3.444 3.444 0 0 0 1.944-.568 3.922 3.922 0 0 0 1.35-1.552 4.957 4.957 0 0 0 .492-2.247 4.879 4.879 0 0 0-.492-2.234 3.946 3.946 0 0 0-1.35-1.54 3.61 3.61 0 0 0-3.887 0 3.942 3.942 0 0 0-1.35 1.54 4.879 4.879 0 0 0-.492 2.234 4.957 4.957 0 0 0 .492 2.247 3.918 3.918 0 0 0 1.35 1.552 3.442 3.442 0 0 0 1.943.568z" class="cls-1" transform="translate(-595.558 -133.535)"/>
            <path id="패스_6200" d="M840.566 182.327v-13.132a.192.192 0 0 1 .189-.194h2.4a.192.192 0 0 1 .189.194v1.273a.188.188 0 0 0 .344.109 3.949 3.949 0 0 1 1.057-1.124 3.559 3.559 0 0 1 2.108-.633 5.063 5.063 0 0 1 .732.052 2.42 2.42 0 0 1 .5.125.193.193 0 0 1 .117.2l-.285 2.514a.188.188 0 0 1-.232.166 2.642 2.642 0 0 0-.375-.075 4.75 4.75 0 0 0-.606-.039 2.916 2.916 0 0 0-2.373 1.034 4.364 4.364 0 0 0-.859 2.87v6.657a.192.192 0 0 1-.189.194h-2.524a.192.192 0 0 1-.193-.191z" class="cls-1" transform="translate(-701.659 -133.277)"/>
            <path id="패스_6201" d="M910.5 182.521a6.956 6.956 0 0 1-2.689-.508 6.443 6.443 0 0 1-2.133-1.425 6.338 6.338 0 0 1-1.4-2.168 7.486 7.486 0 0 1-.492-2.763 7.252 7.252 0 0 1 .492-2.7 6.825 6.825 0 0 1 1.363-2.168 6.2 6.2 0 0 1 2.057-1.45 6.34 6.34 0 0 1 2.575-.52 6.48 6.48 0 0 1 2.537.483 5.836 5.836 0 0 1 1.994 1.375 6.141 6.141 0 0 1 1.3 2.118 7.76 7.76 0 0 1 .454 2.713v.656a.188.188 0 0 1-.189.186H907a.189.189 0 0 0-.189.212 4.742 4.742 0 0 0 .591 1.758 3.468 3.468 0 0 0 1.275 1.276 3.83 3.83 0 0 0 4.966-1.237.191.191 0 0 1 .224-.072l2.218.841a.186.186 0 0 1 .1.255 5.076 5.076 0 0 1-1.239 1.589 6.06 6.06 0 0 1-2.02 1.152 7.419 7.419 0 0 1-2.426.397zm-.227-11.4a3.126 3.126 0 0 0-1.578.4 3.481 3.481 0 0 0-1.174 1.115 4.328 4.328 0 0 0-.61 1.459.189.189 0 0 0 .187.225h6.2a.189.189 0 0 0 .188-.221 4.541 4.541 0 0 0-.542-1.464 3.031 3.031 0 0 0-2.676-1.512z" class="cls-1" transform="translate(-757.067 -133.277)"/>
            <path id="패스_6202" d="M1019.111 182.33v-12.937a.19.19 0 0 1 .189-.191h2.373a.19.19 0 0 1 .189.191v.978a.188.188 0 0 0 .34.114 4.345 4.345 0 0 1 1.25-1.078 4.493 4.493 0 0 1 2.3-.586 4.343 4.343 0 0 1 2.448.7 4.558 4.558 0 0 1 1.48 1.611.187.187 0 0 0 .323 0 4.427 4.427 0 0 1 .86-1.068 4.717 4.717 0 0 1 1.514-.917 5.254 5.254 0 0 1 1.881-.331 4.429 4.429 0 0 1 4.228 2.687 7.284 7.284 0 0 1 .593 3.069v7.755a.19.19 0 0 1-.189.191h-2.524a.19.19 0 0 1-.189-.191v-7.424a4.018 4.018 0 0 0-.707-2.547 2.346 2.346 0 0 0-1.944-.891 2.81 2.81 0 0 0-1.527.42 2.968 2.968 0 0 0-1.06 1.171 3.608 3.608 0 0 0-.391 1.694v7.576a.19.19 0 0 1-.189.191h-2.524a.19.19 0 0 1-.189-.191v-7.424a4.017 4.017 0 0 0-.707-2.547 2.346 2.346 0 0 0-1.944-.891 2.809 2.809 0 0 0-1.527.42 2.968 2.968 0 0 0-1.06 1.171 3.611 3.611 0 0 0-.391 1.694v7.576a.19.19 0 0 1-.189.191h-2.528a.19.19 0 0 1-.189-.186z" class="cls-1" transform="translate(-858.153 -133.277)"/>
            <path id="패스_6203" d="M1200.019 182.521a6.89 6.89 0 0 1-2.663-.508 6.357 6.357 0 0 1-2.133-1.437 6.63 6.63 0 0 1-1.414-2.18 7.608 7.608 0 0 1 0-5.451 6.531 6.531 0 0 1 1.426-2.18 6.432 6.432 0 0 1 2.171-1.437 7.138 7.138 0 0 1 2.713-.508 6.884 6.884 0 0 1 2.663.508 6.362 6.362 0 0 1 2.133 1.437 6.669 6.669 0 0 1 1.414 2.168 7.164 7.164 0 0 1 .5 2.725 7.256 7.256 0 0 1-.5 2.738 6.528 6.528 0 0 1-1.426 2.18 6.434 6.434 0 0 1-2.171 1.437 7.148 7.148 0 0 1-2.713.508zm.051-2.577a3.492 3.492 0 0 0 1.944-.558 3.871 3.871 0 0 0 1.35-1.524 4.79 4.79 0 0 0 .492-2.205 4.715 4.715 0 0 0-.492-2.193 3.9 3.9 0 0 0-1.35-1.511 3.667 3.667 0 0 0-3.888 0 3.892 3.892 0 0 0-1.35 1.511 4.715 4.715 0 0 0-.492 2.193 4.79 4.79 0 0 0 .492 2.205 3.868 3.868 0 0 0 1.35 1.524 3.489 3.489 0 0 0 1.943.559z" class="cls-1" transform="translate(-1010.831 -133.277)"/>
            <g id="POLYLINE" transform="translate(76 30)">
                <path id="패스_6204" fill="#f3a875" d="M359.813 143.64l1.1-1.435.012-.015.012-.014.013-.014.013-.013.014-.013.014-.013.015-.012.015-.012.015-.011.016-.01.016-.01.016-.009.017-.009.017-.008.017-.008.018-.007.018-.006.018-.006.018-.005H361.487l.018.005.018.006.018.006.018.007.017.008.017.008.017.009.016.009.016.01.016.01.015.011.015.012.015.012.014.013.014.013.013.013.013.014.012.014.012.015 1.128 1.466.078.1.082.1.085.093.088.09.091.087.094.084.1.08.1.077.1.073.1.07.107.066.109.062.111.059.113.055.115.051.117.047.118.043.12.039.121.034.122.03.123.026.124.022.125.017.125.013.126.009h.378l.126-.009.125-.013.125-.017.124-.022.123-.026.122-.03.121-.034.12-.038.119-.043.117-.047.115-.051.114-.055.111-.059.109-.062.107-.066.1-.07.1-.073.1-.077.1-.08.094-.083.091-.087.088-.09.085-.093.082-.1.079-.1.075-.1.072-.1.068-.106.064-.108.06-.11.057-.112.053-.114.049-.116.045-.118.041-.119.036-.121.032-.122.028-.123.024-.124.02-.124.015-.125.011-.125.007-.126v-.252l-.006-.126-.011-.125-.015-.125-.019-.124-.024-.124-.028-.123-.032-.122-.036-.121-.041-.119-.045-.118-.049-.116-.053-.114-.057-.113-.06-.111-.064-.108-.068-.106-.072-.1-.075-.1-2.948-3.834-.032-.04-.033-.038-.034-.037-.035-.036-.037-.035-.038-.034-.039-.032-.04-.031-.041-.03-.042-.028-.043-.027-.044-.025-.045-.024-.046-.022-.046-.02-.047-.019-.048-.017-.048-.015-.049-.014-.049-.012-.049-.01-.05-.009-.05-.007-.05-.005h-.255l-.05.005-.05.007-.05.009-.05.01-.049.012-.049.014-.048.015-.048.017-.047.019-.046.02-.046.022-.045.024-.044.025-.043.027-.042.028-.041.03-.04.031-.039.032-.038.034-.037.035-.035.036-.034.037-.033.038-.032.04-7.7 10.015-.139.175-.145.17-.151.165-.157.16-.162.154-.167.148-.172.143-.177.137-.182.13-.186.124-.19.118-.194.111-.2.1-.2.1-.2.09-.208.083-.21.076-.213.069-.215.061-.217.054-.219.046-.22.039-.221.031-.222.024-.223.016-.223.008h-.224l-.223-.007-.223-.015-.222-.023-.222-.03-.22-.038-.219-.045-.217-.053-.215-.06-.213-.068-.211-.075-.208-.082-.2-.089-.2-.1-.2-.1-.195-.11-.191-.117-.187-.123-.182-.129-.178-.136-.173-.142-.168-.148-.163-.153-.157-.159-.152-.164-.146-.169-.14-.174-.035-.044-.037-.043-.038-.041-.04-.04-.041-.039-.042-.037-.044-.036-.045-.034-.046-.033-.047-.031-.048-.029-.049-.028-.05-.026-.051-.024-.052-.023-.052-.021-.053-.019-.054-.017-.054-.015-.055-.013-.055-.012-.056-.01-.056-.008-.056-.006h-.28l-.056.006-.056.008-.056.01-.055.012-.055.013-.054.015-.054.017-.053.019-.052.021-.052.023-.051.024-.05.026-.049.028-.048.029-.047.031-.046.033-.045.034-.044.036-.042.037-.041.039-.04.04-.038.041-.037.043-.035.044-.142.176-.148.171-.154.166-.16.16-.165.155-.17.149-.175.143-.18.137-.185.13-.189.124-.193.117-.2.11-.2.1-.2.1-.208.089-.211.082-.214.074-.216.067-.218.059-.22.052-.222.044-.223.036-.224.028-.225.021-.226.013h-.452l-.226-.011-.225-.019-.225-.027-.224-.034-.222-.042-.221-.05-.219-.058-.217-.065-.214-.073-.212-.08-.209-.087-.206-.095-.2-.1-.2-.109-.195-.116-.19-.122-.186-.129-.181-.135-.177-.141-.172-.147-.166-.153-.161-.159-.155-.165-.149-.17-.143-.175-.137-.18-.131-.185-.124-.189-.118-.193-.111-.2-.1-.2-.1-.2-.09-.208-.082-.211-.075-.213-.067-.216-.06-.218-.052-.22-.045-.222-.037-.223-.029-.224-.021-.225-.013-.226-.005-.226v-.226l.01-.226.018-.225.026-.225.034-.224.042-.222.049-.221.057-.219.065-.217.072-.214.08-.212.087-.209.094-.206.1-.2.108-.2.115-.195.122-.191.128-.186.135-.182 8.98-11.677.1-.128.106-.124.11-.121.115-.117.118-.113.122-.109.126-.1.129-.1.133-.1.136-.091.139-.087.142-.082.144-.077.147-.072.149-.067.152-.062.154-.057.155-.051.157-.046.159-.041.16-.035.161-.03.162-.024.163-.019.163-.013.163-.008H345.525l.134.006.135.01.135.014.136.018.136.022.136.026.135.03.135.034.134.038.133.042.132.046.131.05.13.054.128.057.127.061.125.065.123.069.121.072.118.075.116.079.113.082.111.085.108.088.1.091.1.093.1.1.1.1.092.1.089.1.085.1.082.106.944 1.231.011.015.011.016.01.016.01.016.009.017.008.017.008.017.007.017.007.018.006.018.005.018v.298l-.005.018-.006.018-.007.018-.007.017-.008.017-.008.017-.009.017-.01.016-.01.016-.011.016-.011.015-1.1 1.433-.012.015-.012.014-.013.014-.013.013-.014.013-.014.013-.015.012-.015.012-.015.011-.016.01-.016.01-.016.009-.017.009-.017.008-.017.008-.018.007-.018.006-.018.006-.018.005H348.474l-.018-.005-.018-.006-.018-.006-.018-.007-.017-.008-.017-.008-.017-.009-.016-.009-.016-.01-.016-.01-.015-.011-.015-.012-.015-.012-.014-.013-.014-.013-.013-.013-.013-.014-.012-.014-.012-.015-1.258-1.636-.042-.053-.044-.051-.046-.05-.047-.048-.049-.047-.051-.045-.052-.043-.054-.041-.055-.039-.056-.037-.058-.036-.059-.034-.06-.031-.061-.029-.062-.027-.063-.025-.064-.023-.064-.021-.065-.018-.066-.016-.066-.014-.067-.012-.067-.009-.067-.007h-.338l-.067.007-.067.009-.067.012-.066.014-.066.016-.065.018-.064.021-.064.023-.063.025-.062.027-.061.029-.06.031-.059.034-.058.036-.056.037-.055.039-.054.041-.052.043-.051.045-.049.047-.047.048-.046.05-.044.051-.042.053-8.98 11.677-.074.1-.071.1-.067.1-.064.107-.06.109-.056.111-.052.113-.048.115-.044.116-.04.118-.037.119-.032.12-.028.121-.024.122-.02.123-.016.124-.011.124-.007.124v.25l.006.124.01.124.014.124.018.123.022.123.027.122.031.121.035.12.039.118.043.117.047.115.051.114.055.112.058.11.062.108.066.106.069.1.073.1.076.1.08.1.083.093.086.09.089.087.092.084.095.081.1.078.065.049.066.048.068.047.07.045.071.044.073.043.074.041.076.04.077.038.079.037.08.035.082.033.083.032.084.03.085.028.087.026.088.024.089.022.09.02.09.017.091.015.092.013.092.011.093.008.093.006h.376l.094-.006.094-.009.094-.011.093-.013.093-.016.093-.018.092-.021.091-.023.091-.025.09-.027.089-.03.088-.032.087-.034.085-.036.084-.038.083-.04.082-.042.08-.044.079-.046.077-.047.075-.049.074-.05.072-.052.07-.053.069-.055.067-.056.065-.057.063-.058.061-.059.059-.06.058-.061.056-.062.054-.062.052-.063.05-.064 13.76-17.858.083-.1.086-.1.09-.1.093-.1.1-.1.1-.095.1-.092.106-.089.109-.087.111-.084.114-.081.117-.077.119-.074.121-.071.123-.067.125-.064.127-.06.129-.056.13-.052.132-.048.133-.044.134-.041.134-.037.135-.033.135-.029.126-.038.136-.021.136-.017.135-.013.135-.009h.402l.134.006.135.01.135.014.136.018.136.022.135.026.135.03.135.034.134.038.133.042.132.046.131.05.13.054.128.057.127.061.125.065.123.068.121.072.118.075.116.079.113.082.111.085.108.088.1.091.1.093.1.1.1.1.092.1.089.1.085.1.082.106.944 1.231.011.015.011.016.01.016.01.016.009.017.008.017.008.017.007.017.007.018.006.018.005.018v.298l-.005.018-.006.018-.007.018-.007.017-.008.017-.008.017-.009.017-.01.016-.01.016-.011.015-.011.015-1.114 1.449-.012.015-.012.014-.013.014-.013.013-.014.013-.014.013-.015.012-.015.012-.015.011-.016.01-.016.01-.016.009-.017.009-.017.008-.017.008-.018.007-.018.006-.018.006-.018.005H361.278l-.018-.005-.018-.006-.018-.006-.018-.007-.017-.008-.017-.008-.017-.009-.016-.009-.016-.01-.016-.01-.015-.011-.015-.012-.015-.012-.014-.013-.014-.013-.013-.013-.013-.014-.012-.014-.012-.015-1.271-1.653-.042-.053-.044-.051-.046-.05-.047-.048-.049-.047-.051-.045-.052-.043-.054-.041-.055-.039-.056-.037-.058-.036-.059-.034-.06-.031-.061-.029-.062-.027-.063-.025-.064-.023-.064-.021-.065-.018-.066-.016-.066-.014-.067-.012-.067-.009-.067-.007h-.34l-.067.007-.067.009-.067.012-.066.014-.066.016-.065.018-.064.021-.064.023-.063.025-.062.027-.061.029-.06.031-.059.034-.058.036-.056.037-.055.039-.054.041-.052.043-.051.045-.049.047-.047.048-.046.05-.044.051-.042.053-8.955 11.654-.075.1-.072.1-.068.107-.065.109-.061.111-.057.113-.053.115-.049.117-.045.118-.041.12-.037.121-.032.122-.028.124-.024.124-.02.125-.015.126-.011.126-.007.126v.254l.007.127.011.126.015.126.02.125.024.124.028.123.032.122.037.121.041.12.045.118.049.117.053.115.057.113.061.111.065.109.068.107.072.1.076.1.079.1.082.1.086.093.089.09.092.087.095.084.1.081.1.077.1.074.106.07.108.066.11.063.112.059.114.055.116.051.118.047.119.043.121.039.122.035.123.03.124.026.125.022.125.017.126.013.126.009h.381l.126-.009.126-.013.125-.017.125-.022.124-.026.123-.03.122-.035.121-.039.119-.043.118-.047.116-.051.114-.055.112-.059.11-.063.108-.067.105-.07.1-.074.1-.077.1-.081.095-.084.092-.087.089-.09.086-.093.082-.1.079-.1 7.7-10.018.093-.117.1-.113.1-.11.1-.106.108-.1.112-.1.115-.095.118-.091.121-.087.124-.083.127-.078.129-.074.132-.069.134-.065.137-.06.138-.055.14-.05.142-.046.143-.041.145-.036.146-.031.147-.026.148-.02.148-.015.149-.01.149-.005h.149l.149.005.149.01.148.016.148.021.147.026.146.031.145.036.143.041.142.046.14.051.138.055.136.06.134.065.132.069.129.074.127.078.124.083.121.087.118.091.115.1.111.1.108.1.1.106.1.11.1.113.093.117 2.943 3.839.135.182.128.187.122.191.115.2.108.2.1.2.094.206.087.209.079.212.072.215.064.217.057.219.049.221.041.223.033.224.026.225.018.226.01.226v.226l-.006.226-.014.226-.022.225-.03.225-.037.223-.045.222-.053.22-.061.218-.068.216-.076.213-.083.211-.09.208-.1.2-.1.2-.111.2-.118.193-.125.189-.131.184-.138.18-.144.175-.15.17-.156.164-.161.159-.167.153-.172.147-.177.141-.182.135-.187.128-.191.122-.2.115-.2.108-.2.1-.206.094-.209.087-.212.079-.215.072-.217.064-.219.057-.221.049-.223.041-.224.034-.225.026-.226.018-.226.01h-.226l-.226-.006-.226-.014-.225-.022-.225-.029-.223-.037-.222-.045-.22-.053-.218-.06-.216-.068-.214-.075-.211-.083-.208-.09-.2-.1-.2-.1-.2-.111-.193-.118-.189-.125-.184-.131-.18-.138-.175-.144-.17-.15-.164-.156-.159-.161-.153-.167-.147-.172-.141-.177-.844-1.1-.011-.015-.011-.016-.01-.016-.01-.016-.009-.017-.008-.017-.008-.017-.007-.017-.007-.018-.006-.018-.005-.018v-.298l.005-.018.006-.018.007-.018.007-.017.008-.017.008-.017.009-.017.01-.016.01-.016.011-.016z" transform="translate(-331.238 -123.938)"/>
            </g>
        </g>
    </g>
</svg>
