<svg width="38" height="22" viewBox="0 0 38 22" fill="none" xmlns="http://www.w3.org/2000/svg">
<path d="M25.9957 17.8969L26.9886 16.6023L27.0017 16.5892L27.0104 16.576L27.0235 16.5673L27.0323 16.5542L27.0454 16.5411L27.0585 16.5323L27.0717 16.5192L27.0848 16.5104L27.0979 16.4973L27.1154 16.4886L27.1285 16.4798L27.1416 16.4711L27.1591 16.4623L27.1723 16.458L27.1898 16.4492L27.2072 16.4448L27.2204 16.4361L27.2379 16.4317L27.2554 16.4273L27.2685 16.423L27.286 16.4186H27.3035L27.321 16.4142H27.3385H27.356L27.3735 16.4098H27.3866L27.4041 16.4142H27.4216H27.4391L27.4566 16.4186H27.474L27.4915 16.423L27.5047 16.4273L27.5222 16.4317L27.5397 16.4361L27.5572 16.4448L27.5703 16.4492L27.5878 16.458L27.6009 16.4623L27.6184 16.4711L27.6315 16.4798L27.6446 16.4886L27.6621 16.4973L27.6752 16.5104L27.6884 16.5192L27.7015 16.5323L27.7146 16.5411L27.7277 16.5542L27.7365 16.5673L27.7496 16.576L27.7584 16.5892L27.7715 16.6023L28.7862 17.9276L28.8606 18.015L28.9305 18.1025L29.0093 18.1856L29.088 18.2643L29.1711 18.3431L29.2542 18.4218L29.3417 18.4918L29.4335 18.5618L29.5254 18.6274L29.6216 18.693L29.7178 18.7498L29.8141 18.8067L29.9147 18.8592L30.0196 18.9073L30.1246 18.9554L30.2296 18.9948L30.3345 19.0341L30.4439 19.0691L30.5532 19.0998L30.6626 19.1304L30.7719 19.1522L30.8857 19.1697L30.9994 19.1872L31.1131 19.2004L31.2224 19.2047L31.3362 19.2091H31.4499L31.5636 19.2047L31.6773 19.2004L31.791 19.1872L31.9048 19.1697L32.0141 19.1522L32.1278 19.1304L32.2372 19.0998L32.3465 19.0691L32.4559 19.0341L32.5608 18.9992L32.6658 18.9554L32.7708 18.9117L32.8714 18.8592L32.972 18.8067L33.0726 18.7498L33.1688 18.693L33.265 18.6274L33.3569 18.5618L33.4444 18.4918L33.5318 18.4218L33.6193 18.3475L33.7024 18.2687L33.7811 18.1856L33.8555 18.1025L33.9299 18.0194L34.0042 17.9276L34.0698 17.8357L34.1354 17.7439L34.1967 17.6476L34.2535 17.5514L34.3104 17.4508L34.3585 17.3502L34.4066 17.2452L34.4503 17.1403L34.4897 17.0353L34.5291 16.926L34.5597 16.821L34.5903 16.7116L34.6165 16.5979L34.6384 16.4886L34.6559 16.3748L34.669 16.2611L34.6778 16.1474L34.6822 16.0337L34.6865 15.9243L34.6822 15.8106L34.6778 15.6969L34.669 15.5832L34.6559 15.4695L34.6384 15.3557L34.6165 15.2464L34.5903 15.137L34.5597 15.0233L34.5291 14.9184L34.4941 14.809L34.4503 14.704L34.4066 14.5991L34.3585 14.4941L34.3104 14.3935L34.2535 14.2929L34.1967 14.1967L34.1354 14.1004L34.0698 14.0086L34.0042 13.9167L31.3449 10.457L31.3143 10.422L31.288 10.387L31.2574 10.3521L31.2224 10.3214L31.1918 10.2908L31.1568 10.2602L31.1218 10.2296L31.0869 10.2033L31.0475 10.1771L31.0081 10.1509L30.9731 10.1246L30.9294 10.1027L30.89 10.0809L30.8507 10.0634L30.8069 10.0459L30.7676 10.0284L30.7238 10.0109L30.6801 9.99777L30.6363 9.98465L30.5926 9.97591L30.5445 9.96716L30.5008 9.95841L30.457 9.94966L30.4089 9.94529H30.3652L30.3214 9.94091H30.2733L30.2296 9.94529H30.1815L30.1377 9.94966L30.094 9.95841L30.0459 9.96716L30.0021 9.97591L29.9584 9.98465L29.9147 9.99777L29.8709 10.0109L29.8272 10.0284L29.7834 10.0459L29.7441 10.0634L29.7003 10.0809L29.661 10.1027L29.6216 10.1246L29.5822 10.1509L29.5473 10.1771L29.5079 10.2033L29.4729 10.2296L29.4379 10.2602L29.4029 10.2908L29.3679 10.3214L29.3373 10.3521L29.3067 10.387L29.2761 10.422L29.2498 10.457L22.3042 19.489L22.1773 19.6465L22.0461 19.7996L21.9105 19.9483L21.7706 20.0926L21.6218 20.2326L21.4731 20.3638L21.3157 20.495L21.1582 20.6175L20.992 20.7356L20.8258 20.8449L20.6552 20.9543L20.4803 21.0549L20.3009 21.1467L20.1172 21.2342L19.9335 21.3173L19.7455 21.3917L19.5574 21.4616L19.3649 21.5229L19.1725 21.5754L18.9757 21.6235L18.7788 21.6672L18.582 21.7022L18.3808 21.7284L18.1796 21.7503L17.9784 21.7678L17.7772 21.7722H17.576L17.3748 21.7678L17.1736 21.7547L16.9724 21.7328L16.7712 21.7066L16.5744 21.6716L16.3776 21.6322L16.1808 21.5841L15.9883 21.5316L15.7959 21.4704L15.6034 21.4004L15.4153 21.326L15.2316 21.2473L15.0479 21.1598L14.873 21.068L14.6937 20.9674L14.5231 20.8624L14.3569 20.7531L14.1907 20.635L14.0288 20.5125L13.8758 20.3857L13.7227 20.2501L13.5783 20.1145L13.434 19.9701L13.2984 19.8214L13.1672 19.6684L13.0403 19.5109L13.0097 19.4715L12.9747 19.4322L12.9398 19.3972L12.9048 19.3622L12.8654 19.3272L12.8304 19.2922L12.791 19.2616L12.7473 19.2266L12.7079 19.2004L12.6642 19.1697L12.6205 19.1435L12.5767 19.1216L12.533 19.0954L12.4892 19.0735L12.4411 19.0516L12.393 19.0341L12.3449 19.0167L12.2968 19.0035L12.2487 18.9904L12.2006 18.9773L12.1481 18.9642L12.1 18.9554L12.0475 18.951L11.9994 18.9467L11.9469 18.9423L11.8988 18.9379H11.8463L11.7938 18.9423L11.7457 18.9467L11.6932 18.951L11.6451 18.9554L11.5926 18.9642L11.5445 18.9773L11.4964 18.9904L11.4439 19.0035L11.3958 19.0167L11.3477 19.0341L11.3039 19.0516L11.2558 19.0735L11.2077 19.0954L11.164 19.1216L11.1202 19.1435L11.0765 19.1697L11.0328 19.2004L10.9934 19.2266L10.954 19.2616L10.9147 19.2922L10.8753 19.3272L10.8403 19.3622L10.8009 19.3972L10.7703 19.4322L10.7353 19.4715L10.7047 19.5109L10.5735 19.6727L10.4423 19.8258L10.3023 19.9745L10.158 20.1189L10.0093 20.2588L9.85619 20.3944L9.69873 20.5213L9.5369 20.6437L9.37069 20.7618L9.20011 20.8755L9.02516 20.9805L8.84583 21.0811L8.6665 21.173L8.47843 21.2604L8.29473 21.3392L8.10227 21.4135L7.90982 21.4835L7.713 21.5404L7.51618 21.5972L7.31936 21.641L7.11816 21.6803L6.91696 21.7153L6.71577 21.7416L6.51457 21.7591L6.30899 21.7722L6.10342 21.7765L5.90223 21.7722L5.69666 21.7634L5.49546 21.7459L5.28989 21.7197L5.08869 21.6891L4.88749 21.6541L4.69067 21.606L4.49385 21.5535L4.29703 21.4966L4.10458 21.431L3.91213 21.361L3.72405 21.2823L3.54035 21.1948L3.35665 21.103L3.17732 21.0068L3.00237 20.9018L2.83179 20.7924L2.66558 20.6743L2.49938 20.5519L2.34192 20.425L2.18446 20.2938L2.03575 20.1539L1.89141 20.0095L1.75144 19.8608L1.61586 19.7077L1.48902 19.5503L1.36217 19.3884L1.24408 19.2222L1.13474 19.0516L1.02976 18.8767L0.929165 18.7017L0.83294 18.518L0.745458 18.3343L0.666732 18.1463L0.592377 17.9582L0.522394 17.7657L0.46116 17.5689L0.408676 17.3721L0.360564 17.1753L0.321201 16.9741L0.290581 16.7729L0.264339 16.5717L0.242468 16.3661L0.229347 16.1649L0.224976 15.9593L0.229347 15.7581L0.238097 15.5526L0.255589 15.347L0.27746 15.1458L0.308073 14.9446L0.347443 14.7434L0.391177 14.5466L0.443668 14.3454L0.500524 14.1529L0.566135 13.9605L0.636112 13.768L0.714844 13.58L0.797949 13.3919L0.889796 13.2126L0.990399 13.0332L1.091 12.8583L1.20034 12.6833L1.31844 12.5171L1.4409 12.3509L9.5369 1.82305L9.62875 1.70496L9.72498 1.59561L9.82557 1.48626L9.92617 1.38129L10.0355 1.28069L10.1449 1.1801L10.2586 1.08387L10.3767 0.996393L10.4948 0.908917L10.6172 0.825813L10.7441 0.747084L10.8709 0.677102L11.0021 0.607121L11.1333 0.541514L11.2689 0.48028L11.4045 0.42342L11.5445 0.375307L11.6845 0.327195L11.8244 0.28783L11.9688 0.248465L12.1131 0.217848L12.2574 0.191605L12.4018 0.169736L12.5505 0.152242L12.6948 0.139119L12.8435 0.134746L12.9922 0.130371L13.1103 0.134746L13.2328 0.139119L13.3553 0.147867L13.4777 0.160988L13.6002 0.178484L13.7227 0.195979L13.8451 0.222223L13.9676 0.248465L14.0857 0.279082L14.2082 0.314074L14.3263 0.349064L14.4487 0.392803L14.5668 0.436541L14.6849 0.484653L14.7986 0.537139L14.9124 0.589627L15.0261 0.65086L15.1354 0.712094L15.2448 0.777701L15.3497 0.843309L15.4547 0.917665L15.5597 0.987647L15.6559 1.06637L15.7565 1.1451L15.8484 1.22821L15.9402 1.31131L16.0277 1.39879L16.1152 1.48626L16.1983 1.57374L16.277 1.66997L16.3557 1.76182L16.4301 1.85804L17.283 2.969L17.2917 2.98212L17.3005 2.99524L17.3092 3.00836L17.318 3.02586L17.3267 3.03898L17.3355 3.0521L17.3398 3.0696L17.3486 3.08709L17.353 3.10021L17.3617 3.11771L17.3661 3.13521L17.3705 3.14833L17.3748 3.16582V3.18332L17.3792 3.20081V3.21831L17.3836 3.2358V3.24893V3.26642V3.28392V3.30141L17.3792 3.31891V3.3364L17.3748 3.3539L17.3705 3.36702V3.38452L17.3661 3.40201L17.3573 3.41951L17.353 3.43263L17.3486 3.45012L17.3398 3.46762L17.3355 3.48074L17.3267 3.49824L17.318 3.51136L17.3092 3.52448L17.3005 3.54197L17.2917 3.5551L17.283 3.56822L16.2857 4.8585L16.277 4.87162L16.2639 4.88475L16.2551 4.89787L16.242 4.91099L16.2289 4.92411L16.2158 4.93286L16.2026 4.94598L16.1895 4.95473L16.1764 4.96348L16.1633 4.9766L16.1458 4.98534L16.1327 4.99409L16.1195 4.99847L16.102 5.00721L16.0889 5.01596L16.0714 5.02033L16.0539 5.02471L16.0408 5.03346L16.0233 5.03783L16.0058 5.0422H15.9883L15.9708 5.04658L15.9577 5.05095H15.9402H15.9227H15.9052H15.8877H15.8702H15.8527H15.8352L15.8221 5.04658L15.8046 5.0422H15.7871L15.7696 5.03783L15.7521 5.03346L15.739 5.02471L15.7215 5.02033L15.704 5.01596L15.6909 5.00721L15.6734 4.99847L15.6603 4.99409L15.6428 4.98534L15.6297 4.9766L15.6165 4.96348L15.6034 4.95473L15.5903 4.94598L15.5772 4.93286L15.5641 4.92411L15.5509 4.91099L15.5378 4.89787L15.5291 4.88475L15.5159 4.87162L15.5072 4.8585L14.37 3.38452L14.335 3.3364L14.2956 3.29267L14.2519 3.24455L14.2082 3.20081L14.1644 3.16145L14.1207 3.12209L14.0726 3.08272L14.0245 3.04336L13.9764 3.00836L13.9239 2.97337L13.8714 2.94276L13.8189 2.91214L13.7664 2.8859L13.7096 2.85965L13.6527 2.83341L13.5958 2.81154L13.539 2.78967L13.4821 2.77218L13.4252 2.75468L13.364 2.74156L13.3028 2.72844L13.2459 2.71532L13.1847 2.70657L13.1235 2.7022L13.0622 2.69782H13.001H12.9398H12.8785L12.8173 2.7022L12.756 2.70657L12.6948 2.71532L12.638 2.72844L12.5767 2.74156L12.5199 2.75468L12.4586 2.77218L12.4018 2.78967L12.3449 2.81154L12.2881 2.83341L12.2312 2.85965L12.1743 2.8859L12.1218 2.91214L12.0694 2.94276L12.0169 2.97337L11.9644 3.00836L11.9163 3.04336L11.8682 3.08272L11.82 3.12209L11.7763 3.16145L11.7326 3.20081L11.6888 3.24455L11.6495 3.29267L11.6057 3.3364L11.5707 3.38452L3.47037 13.9167L3.40476 14.0042L3.33915 14.0961L3.28229 14.1923L3.22106 14.2885L3.16857 14.3891L3.12046 14.4897L3.07235 14.5903L3.02861 14.6953L2.98924 14.8003L2.94988 14.9052L2.91926 15.0102L2.88865 15.1196L2.86241 15.2289L2.84054 15.3382L2.82304 15.452L2.80992 15.5613L2.80117 15.675L2.79242 15.7844L2.78805 15.8981L2.79242 16.0118L2.79679 16.1255L2.80554 16.2349L2.81866 16.3486L2.83616 16.458L2.85366 16.5673L2.8799 16.6766L2.90614 16.786L2.93676 16.8953L2.97175 17.0003L3.01112 17.1053L3.05486 17.2103L3.09859 17.3152L3.1467 17.4158L3.19919 17.512L3.25605 17.6126L3.31728 17.7089L3.37852 17.8007L3.44413 17.8926L3.51411 17.98L3.58409 18.0675L3.65844 18.1506L3.73718 18.2337L3.82028 18.3081L3.89901 18.3868L3.98648 18.4568L4.07396 18.5312L4.13082 18.5749L4.19205 18.6143L4.25329 18.658L4.3189 18.6974L4.38013 18.7367L4.44574 18.7761L4.51572 18.8155L4.58133 18.8504L4.65131 18.8854L4.72129 18.9204L4.79565 18.951L4.87 18.9817L4.94436 19.0079L5.01871 19.0341L5.09744 19.0604L5.17617 19.0823L5.2549 19.1041L5.33363 19.126L5.41673 19.1435L5.49546 19.1566L5.57856 19.1741L5.66167 19.1829L5.74477 19.196L5.82787 19.2004L5.91098 19.2047L5.99845 19.2091H6.08156H6.16466L6.25214 19.2047L6.33524 19.2004L6.42272 19.1916L6.50582 19.1829L6.58892 19.1697L6.67202 19.1566L6.7595 19.1391L6.8426 19.1216L6.92134 19.0998L7.00444 19.0779L7.08317 19.0516L7.16627 19.0254L7.245 18.9992L7.32373 18.9685L7.39808 18.9335L7.47682 18.8986L7.55117 18.8636L7.62553 18.8242L7.69551 18.7848L7.76549 18.7455L7.83547 18.7017L7.90545 18.658L7.97106 18.6143L8.03667 18.5661L8.0979 18.518L8.15914 18.4699L8.22037 18.4174L8.27723 18.3693L8.33409 18.3168L8.39095 18.26L8.44343 18.2075L8.49592 18.155L8.54841 18.0981L8.59652 18.0413L8.64463 17.9844L8.68837 17.9276L21.097 1.82305L21.1713 1.72683L21.2501 1.63498L21.3288 1.54313L21.4119 1.45565L21.4994 1.36817L21.5912 1.28069L21.6831 1.19759L21.7793 1.11886L21.8755 1.04013L21.9761 0.965776L22.0811 0.891422L22.1861 0.82144L22.291 0.755832L22.4004 0.690225L22.5141 0.62899L22.6235 0.572131L22.7415 0.519643L22.8553 0.467158L22.9734 0.419045L23.0915 0.375307L23.2139 0.335943L23.332 0.300951L23.4545 0.265961L23.577 0.239717L23.6994 0.213475L23.8219 0.191605L23.9444 0.169736L24.0668 0.156615L24.1849 0.143494L24.3074 0.139119L24.4299 0.134746L24.5523 0.130371L24.6704 0.134746L24.7929 0.139119L24.9153 0.147867L25.0378 0.160988L25.1603 0.178484L25.2784 0.195979L25.4008 0.222223L25.5233 0.248465L25.6458 0.279082L25.7682 0.314074L25.8863 0.349064L26.0044 0.392803L26.1225 0.436541L26.2406 0.484653L26.3587 0.537139L26.4724 0.589627L26.5818 0.65086L26.6955 0.712094L26.8048 0.777701L26.9098 0.843309L27.0148 0.917665L27.1154 0.987647L27.216 1.06637L27.3122 1.1451L27.4084 1.22821L27.5003 1.31131L27.5878 1.39879L27.6752 1.48626L27.7584 1.57374L27.8371 1.66997L27.9158 1.76182L27.9902 1.85804L28.8387 2.969L28.8518 2.98212L28.8606 2.99524L28.8693 3.00836L28.8781 3.02586L28.8868 3.03898L28.8955 3.0521L28.8999 3.0696L28.9087 3.08709L28.913 3.10021L28.9174 3.11771L28.9218 3.13521L28.9262 3.14833L28.9305 3.16582L28.9349 3.18332L28.9393 3.20081V3.21831V3.2358L28.9437 3.24893V3.26642V3.28392L28.9393 3.30141V3.31891V3.3364L28.9349 3.3539L28.9305 3.36702L28.9262 3.38452L28.9218 3.40201L28.9174 3.41951L28.913 3.43263L28.9087 3.45012L28.8999 3.46762L28.8912 3.48074L28.8868 3.49824L28.8781 3.51136L28.8693 3.52448L28.8606 3.54197L28.8518 3.5551L28.8387 3.56822L27.8327 4.876L27.824 4.88912L27.8152 4.90224L27.8021 4.91536L27.789 4.92411L27.7758 4.93723L27.7627 4.95035L27.7496 4.9591L27.7365 4.96785L27.7234 4.98097L27.7102 4.98972L27.6971 4.99847L27.6796 5.00721L27.6665 5.01596L27.649 5.02033L27.6359 5.02908L27.6184 5.03346L27.6009 5.0422L27.5878 5.04658L27.5703 5.05095L27.5528 5.05533L27.5353 5.0597H27.5222L27.5047 5.06407H27.4872L27.4697 5.06845H27.4522H27.4347H27.4172L27.3997 5.06407H27.3866L27.3691 5.0597H27.3516L27.3341 5.05533L27.3166 5.05095L27.3035 5.04658L27.286 5.0422L27.2685 5.03346L27.2554 5.02908L27.2379 5.02033L27.2204 5.01596L27.2072 5.00721L27.1941 4.99847L27.1766 4.98972L27.1635 4.98097L27.1504 4.96785L27.1373 4.9591L27.1241 4.95035L27.111 4.93723L27.0979 4.92411L27.0848 4.91536L27.076 4.90224L27.0629 4.88912L27.0542 4.876L25.9082 3.38452L25.8688 3.3364L25.8295 3.28829L25.7901 3.24455L25.7464 3.20081L25.7026 3.16145L25.6545 3.11771L25.6064 3.07834L25.5583 3.04336L25.5102 3.00836L25.4577 2.97337L25.4096 2.94276L25.3527 2.91214L25.3003 2.88152L25.2434 2.85528L25.1909 2.83341L25.134 2.80717L25.0772 2.78967L25.0159 2.77218L24.9591 2.75468L24.8979 2.73718L24.841 2.72406L24.7798 2.71532L24.7185 2.70657L24.6573 2.7022L24.5961 2.69782L24.5348 2.69345H24.4736L24.4167 2.69782L24.3555 2.7022L24.2943 2.70657L24.233 2.71532L24.1718 2.72406L24.1106 2.73718L24.0537 2.75468L23.9968 2.77218L23.9356 2.78967L23.8787 2.80717L23.8219 2.83341L23.765 2.85528L23.7125 2.88152L23.6557 2.91214L23.6032 2.94276L23.5507 2.97337L23.5026 3.00836L23.4545 3.04336L23.402 3.07834L23.3583 3.11771L23.3101 3.16145L23.2664 3.20081L23.2227 3.24455L23.1833 3.28829L23.1439 3.3364L23.1046 3.38452L15.0261 13.8905L14.9561 13.9824L14.8905 14.0786L14.8293 14.1748L14.7724 14.271L14.7155 14.3716L14.6674 14.4766L14.6193 14.5772L14.5756 14.6822L14.5318 14.7915L14.4968 14.9009L14.4618 15.0102L14.4356 15.1196L14.4094 15.2289L14.3875 15.3426L14.37 15.4563L14.3569 15.5701L14.3481 15.6838L14.3394 15.7975V15.9112V16.0249L14.3481 16.1387L14.3569 16.2524L14.37 16.3661L14.3875 16.4798L14.4094 16.5892L14.4356 16.7029L14.4662 16.8122L14.4968 16.9216L14.5362 17.0309L14.5756 17.1359L14.6193 17.2409L14.6674 17.3458L14.7199 17.4464L14.7724 17.547L14.8293 17.6476L14.8949 17.7439L14.9561 17.8357L15.0261 17.9276L15.0961 18.0194L15.1704 18.1025L15.2491 18.19L15.3279 18.2687L15.411 18.3475L15.4985 18.4262L15.5859 18.4962L15.6778 18.5661L15.7696 18.6318L15.8659 18.6974L15.9621 18.7586L16.0627 18.8111L16.1633 18.8679L16.2639 18.9161L16.3688 18.9598L16.4738 19.0035L16.5832 19.0429L16.6925 19.0779L16.8019 19.1085L16.9112 19.1347L17.0249 19.161L17.1386 19.1785L17.248 19.196L17.3617 19.2047L17.4754 19.2135L17.5935 19.2178H17.7072L17.821 19.2135L17.9347 19.2047L18.0484 19.196L18.1621 19.1785L18.2715 19.1566L18.3852 19.1347L18.4945 19.1085L18.6039 19.0779L18.7132 19.0429L18.8226 19.0035L18.9276 18.9598L19.0325 18.9161L19.1375 18.8636L19.2381 18.8111L19.3343 18.7542L19.4349 18.6974L19.5268 18.6318L19.623 18.5661L19.7105 18.4962L19.7979 18.4218L19.8854 18.3475L19.9685 18.2687L20.0473 18.1856L20.126 18.1025L20.2003 18.015L20.2703 17.9276L27.216 8.89119L27.3035 8.78622L27.391 8.68562L27.4784 8.58502L27.5747 8.4888L27.6709 8.39695L27.7715 8.30947L27.8764 8.22199L27.9814 8.14326L28.0908 8.06453L28.2045 7.99018L28.3182 7.9202L28.4363 7.85022L28.5544 7.78898L28.6725 7.73212L28.7993 7.67526L28.9218 7.62715L29.0486 7.58341L29.1755 7.53967L29.3067 7.50468L29.4379 7.46969L29.5691 7.44345L29.7003 7.42158L29.8359 7.40408L29.9671 7.39096L30.1027 7.37784L30.2383 7.37346H30.3695L30.5051 7.37784L30.6407 7.39096L30.7719 7.40408L30.9075 7.42158L31.0387 7.44345L31.17 7.47406L31.3012 7.50468L31.428 7.54405L31.5592 7.58341L31.6817 7.62715L31.8085 7.67964L31.931 7.73212L32.0535 7.79336L32.1716 7.85459L32.2897 7.9202L32.4034 7.99018L32.5127 8.06453L32.6221 8.14326L32.7314 8.22637L32.832 8.31384L32.9326 8.40132L33.0332 8.49317L33.1251 8.5894L33.2169 8.68999L33.3044 8.79059L33.3875 8.89557L36.0424 12.3597L36.1605 12.5215L36.2786 12.6921L36.388 12.8626L36.4929 13.042L36.5892 13.2213L36.681 13.4006L36.7641 13.5887L36.8428 13.7768L36.9128 13.9692L36.9784 14.1617L37.0353 14.3585L37.0878 14.5553L37.1315 14.7565L37.1709 14.9577L37.2015 15.1589L37.2234 15.3601L37.2365 15.5657L37.2496 15.7669V15.9725L37.2452 16.178L37.2321 16.3792L37.2102 16.5848L37.184 16.786L37.1534 16.9872L37.1096 17.1884L37.0615 17.3852L37.009 17.582L36.9478 17.7789L36.8778 17.9713L36.8035 18.1594L36.7247 18.3475L36.6329 18.5312L36.541 18.7149L36.4404 18.8898L36.3355 19.0648L36.2217 19.2353L36.1037 19.4015L35.9768 19.5634L35.85 19.7208L35.7144 19.8739L35.57 20.0226L35.4257 20.167L35.277 20.3026L35.1195 20.4382L34.9621 20.565L34.7959 20.6875L34.6297 20.8012L34.4547 20.9105L34.2798 21.0155L34.1004 21.1117L33.9167 21.2036L33.733 21.2867L33.545 21.3654L33.3525 21.4398L33.16 21.501L32.9632 21.5622L32.7664 21.6103L32.5652 21.6585L32.364 21.6934L32.1628 21.7241L31.9616 21.7459L31.7561 21.7634L31.5548 21.7722L31.3493 21.7765L31.1437 21.7678L30.9425 21.7591L30.7369 21.7372L30.5357 21.7109L30.3345 21.676L30.1333 21.6366L29.9365 21.5885L29.7397 21.536L29.5429 21.4748L29.3504 21.4048L29.158 21.3304L28.9743 21.2517L28.7862 21.1598L28.6069 21.068L28.4276 20.9674L28.257 20.8624L28.0864 20.7487L27.9202 20.6306L27.754 20.5038L27.5965 20.3769L27.4434 20.2413L27.2991 20.1014L27.1548 19.9527L27.0148 19.8039L26.8836 19.6509L26.7567 19.489L25.9957 18.5005L25.9826 18.4874L25.9738 18.4699L25.9651 18.4568L25.9563 18.4437L25.9476 18.4262L25.9388 18.4131L25.9345 18.3956L25.9257 18.3824L25.9213 18.3649L25.917 18.3475L25.9126 18.3343L25.9082 18.3168L25.9038 18.2993L25.8995 18.2818L25.8951 18.2687V18.2512V18.2337L25.8907 18.2162V18.1987V18.1812L25.8951 18.1638V18.1463V18.1331L25.8995 18.1156L25.9038 18.0981L25.9082 18.0806L25.9126 18.0632L25.917 18.05L25.9213 18.0325L25.9257 18.015L25.9345 18.0019L25.9388 17.9844L25.9476 17.9713L25.9563 17.9538L25.9651 17.9407L25.9738 17.9276L25.9826 17.9101L25.9957 17.8969Z" fill="#F3A875"/>
</svg>
